<mxfile host="app.diagrams.net" modified="2022-09-08T01:00:37.377Z" agent="5.0 (Windows NT 10.0; Win64; x64) AppleWebKit/537.36 (KHTML, like Gecko) Chrome/104.0.5112.102 Safari/537.36 OPR/90.0.4480.86" etag="WPLXg4Kw29jchu7OTr22" version="20.2.8" type="github">
  <diagram id="4Ga92RnJRYt7HZnnAIcU" name="Page-1">
    <mxGraphModel dx="1625" dy="946" grid="1" gridSize="10" guides="1" tooltips="1" connect="1" arrows="1" fold="1" page="1" pageScale="1" pageWidth="1500" pageHeight="1500" math="0" shadow="0">
      <root>
        <mxCell id="0" />
        <mxCell id="1" parent="0" />
        <mxCell id="SqbSYqdVDFxBcxVoTpP4-38" style="edgeStyle=orthogonalEdgeStyle;rounded=0;orthogonalLoop=1;jettySize=auto;html=1;exitX=0.5;exitY=0.5;exitDx=0;exitDy=15;exitPerimeter=0;entryX=0.5;entryY=0;entryDx=0;entryDy=0;" edge="1" parent="1" source="SqbSYqdVDFxBcxVoTpP4-1" target="SqbSYqdVDFxBcxVoTpP4-7">
          <mxGeometry relative="1" as="geometry" />
        </mxCell>
        <mxCell id="SqbSYqdVDFxBcxVoTpP4-1" value="Start" style="html=1;dashed=0;whitespace=wrap;shape=mxgraph.dfd.start" vertex="1" parent="1">
          <mxGeometry x="675" y="2" width="80" height="30" as="geometry" />
        </mxCell>
        <mxCell id="SqbSYqdVDFxBcxVoTpP4-41" style="edgeStyle=orthogonalEdgeStyle;rounded=0;orthogonalLoop=1;jettySize=auto;html=1;exitX=0.5;exitY=1;exitDx=0;exitDy=0;entryX=0.5;entryY=0;entryDx=0;entryDy=0;entryPerimeter=0;" edge="1" parent="1" source="SqbSYqdVDFxBcxVoTpP4-3" target="SqbSYqdVDFxBcxVoTpP4-5">
          <mxGeometry relative="1" as="geometry" />
        </mxCell>
        <mxCell id="SqbSYqdVDFxBcxVoTpP4-3" value="Input a 4 Digit&lt;br&gt;&amp;nbsp;passcode&lt;br&gt;" style="shape=parallelogram;html=1;strokeWidth=2;perimeter=parallelogramPerimeter;whiteSpace=wrap;rounded=1;arcSize=12;size=0.23;" vertex="1" parent="1">
          <mxGeometry x="640" y="272" width="130" height="70" as="geometry" />
        </mxCell>
        <mxCell id="SqbSYqdVDFxBcxVoTpP4-42" value="No" style="edgeStyle=orthogonalEdgeStyle;rounded=0;orthogonalLoop=1;jettySize=auto;html=1;exitX=1;exitY=0.5;exitDx=0;exitDy=0;exitPerimeter=0;entryX=0;entryY=0.5;entryDx=0;entryDy=0;entryPerimeter=0;" edge="1" parent="1" source="SqbSYqdVDFxBcxVoTpP4-5" target="SqbSYqdVDFxBcxVoTpP4-6">
          <mxGeometry relative="1" as="geometry" />
        </mxCell>
        <mxCell id="SqbSYqdVDFxBcxVoTpP4-49" value="Yes" style="edgeStyle=orthogonalEdgeStyle;rounded=0;orthogonalLoop=1;jettySize=auto;html=1;" edge="1" parent="1" source="SqbSYqdVDFxBcxVoTpP4-5" target="SqbSYqdVDFxBcxVoTpP4-11">
          <mxGeometry relative="1" as="geometry" />
        </mxCell>
        <mxCell id="SqbSYqdVDFxBcxVoTpP4-5" value="Is &lt;br&gt;the passcode Correct?" style="strokeWidth=2;html=1;shape=mxgraph.flowchart.decision;whiteSpace=wrap;" vertex="1" parent="1">
          <mxGeometry x="645" y="372" width="100" height="100" as="geometry" />
        </mxCell>
        <mxCell id="SqbSYqdVDFxBcxVoTpP4-43" style="edgeStyle=orthogonalEdgeStyle;rounded=0;orthogonalLoop=1;jettySize=auto;html=1;exitX=0.5;exitY=0;exitDx=0;exitDy=0;exitPerimeter=0;entryX=0.5;entryY=1;entryDx=0;entryDy=0;entryPerimeter=0;" edge="1" parent="1" source="SqbSYqdVDFxBcxVoTpP4-6" target="SqbSYqdVDFxBcxVoTpP4-10">
          <mxGeometry relative="1" as="geometry" />
        </mxCell>
        <mxCell id="SqbSYqdVDFxBcxVoTpP4-6" value="Display &lt;br&gt;Incorrect passcode &lt;br&gt;message&lt;br&gt;count ++" style="strokeWidth=2;html=1;shape=mxgraph.flowchart.display;whiteSpace=wrap;" vertex="1" parent="1">
          <mxGeometry x="815" y="387" width="160" height="70" as="geometry" />
        </mxCell>
        <mxCell id="SqbSYqdVDFxBcxVoTpP4-39" style="edgeStyle=orthogonalEdgeStyle;rounded=0;orthogonalLoop=1;jettySize=auto;html=1;exitX=0.5;exitY=1;exitDx=0;exitDy=0;entryX=0.55;entryY=-0.017;entryDx=0;entryDy=0;entryPerimeter=0;" edge="1" parent="1" source="SqbSYqdVDFxBcxVoTpP4-7" target="SqbSYqdVDFxBcxVoTpP4-8">
          <mxGeometry relative="1" as="geometry" />
        </mxCell>
        <mxCell id="SqbSYqdVDFxBcxVoTpP4-7" value="Initialize Variables&lt;br&gt;int count, passcode" style="rounded=1;whiteSpace=wrap;html=1;absoluteArcSize=1;arcSize=14;strokeWidth=2;" vertex="1" parent="1">
          <mxGeometry x="650" y="62" width="130" height="70" as="geometry" />
        </mxCell>
        <mxCell id="SqbSYqdVDFxBcxVoTpP4-40" style="edgeStyle=orthogonalEdgeStyle;rounded=0;orthogonalLoop=1;jettySize=auto;html=1;exitX=0.5;exitY=1;exitDx=0;exitDy=0;exitPerimeter=0;" edge="1" parent="1" source="SqbSYqdVDFxBcxVoTpP4-8" target="SqbSYqdVDFxBcxVoTpP4-3">
          <mxGeometry relative="1" as="geometry" />
        </mxCell>
        <mxCell id="SqbSYqdVDFxBcxVoTpP4-8" value="Display Welcome message" style="strokeWidth=2;html=1;shape=mxgraph.flowchart.display;whiteSpace=wrap;" vertex="1" parent="1">
          <mxGeometry x="635" y="152" width="140" height="60" as="geometry" />
        </mxCell>
        <mxCell id="SqbSYqdVDFxBcxVoTpP4-44" value="No" style="edgeStyle=orthogonalEdgeStyle;rounded=0;orthogonalLoop=1;jettySize=auto;html=1;exitX=0;exitY=0.5;exitDx=0;exitDy=0;exitPerimeter=0;entryX=1;entryY=0.5;entryDx=0;entryDy=0;" edge="1" parent="1" source="SqbSYqdVDFxBcxVoTpP4-10" target="SqbSYqdVDFxBcxVoTpP4-3">
          <mxGeometry relative="1" as="geometry" />
        </mxCell>
        <mxCell id="SqbSYqdVDFxBcxVoTpP4-46" value="" style="edgeStyle=orthogonalEdgeStyle;rounded=0;orthogonalLoop=1;jettySize=auto;html=1;" edge="1" parent="1" source="SqbSYqdVDFxBcxVoTpP4-10" target="SqbSYqdVDFxBcxVoTpP4-45">
          <mxGeometry relative="1" as="geometry" />
        </mxCell>
        <mxCell id="SqbSYqdVDFxBcxVoTpP4-47" value="Yes" style="edgeStyle=orthogonalEdgeStyle;rounded=0;orthogonalLoop=1;jettySize=auto;html=1;" edge="1" parent="1" source="SqbSYqdVDFxBcxVoTpP4-10" target="SqbSYqdVDFxBcxVoTpP4-45">
          <mxGeometry relative="1" as="geometry" />
        </mxCell>
        <mxCell id="SqbSYqdVDFxBcxVoTpP4-10" value="count = 3" style="strokeWidth=2;html=1;shape=mxgraph.flowchart.decision;whiteSpace=wrap;" vertex="1" parent="1">
          <mxGeometry x="845" y="257" width="100" height="100" as="geometry" />
        </mxCell>
        <mxCell id="SqbSYqdVDFxBcxVoTpP4-50" value="" style="edgeStyle=orthogonalEdgeStyle;rounded=0;orthogonalLoop=1;jettySize=auto;html=1;" edge="1" parent="1" source="SqbSYqdVDFxBcxVoTpP4-11" target="SqbSYqdVDFxBcxVoTpP4-12">
          <mxGeometry relative="1" as="geometry" />
        </mxCell>
        <mxCell id="SqbSYqdVDFxBcxVoTpP4-11" value="Display Welcome message" style="strokeWidth=2;html=1;shape=mxgraph.flowchart.display;whiteSpace=wrap;" vertex="1" parent="1">
          <mxGeometry x="625" y="512" width="140" height="60" as="geometry" />
        </mxCell>
        <mxCell id="SqbSYqdVDFxBcxVoTpP4-51" value="Yes" style="edgeStyle=orthogonalEdgeStyle;rounded=0;orthogonalLoop=1;jettySize=auto;html=1;" edge="1" parent="1" source="SqbSYqdVDFxBcxVoTpP4-12" target="SqbSYqdVDFxBcxVoTpP4-36">
          <mxGeometry relative="1" as="geometry" />
        </mxCell>
        <mxCell id="SqbSYqdVDFxBcxVoTpP4-52" value="No" style="edgeStyle=orthogonalEdgeStyle;rounded=0;orthogonalLoop=1;jettySize=auto;html=1;" edge="1" parent="1" source="SqbSYqdVDFxBcxVoTpP4-12" target="SqbSYqdVDFxBcxVoTpP4-13">
          <mxGeometry relative="1" as="geometry" />
        </mxCell>
        <mxCell id="SqbSYqdVDFxBcxVoTpP4-12" value="Do you want &lt;br&gt;to change passcode?" style="strokeWidth=2;html=1;shape=mxgraph.flowchart.decision;whiteSpace=wrap;" vertex="1" parent="1">
          <mxGeometry x="642.5" y="612" width="105" height="120" as="geometry" />
        </mxCell>
        <mxCell id="SqbSYqdVDFxBcxVoTpP4-55" value="" style="edgeStyle=orthogonalEdgeStyle;rounded=0;orthogonalLoop=1;jettySize=auto;html=1;" edge="1" parent="1" source="SqbSYqdVDFxBcxVoTpP4-13" target="SqbSYqdVDFxBcxVoTpP4-22">
          <mxGeometry relative="1" as="geometry" />
        </mxCell>
        <mxCell id="SqbSYqdVDFxBcxVoTpP4-13" value="System Operations/modes" style="rounded=1;whiteSpace=wrap;html=1;absoluteArcSize=1;arcSize=14;strokeWidth=2;" vertex="1" parent="1">
          <mxGeometry x="645" y="762" width="100" height="100" as="geometry" />
        </mxCell>
        <mxCell id="SqbSYqdVDFxBcxVoTpP4-57" value="No" style="edgeStyle=orthogonalEdgeStyle;rounded=0;orthogonalLoop=1;jettySize=auto;html=1;exitX=0.5;exitY=1;exitDx=0;exitDy=0;exitPerimeter=0;entryX=0.5;entryY=0;entryDx=0;entryDy=0;entryPerimeter=0;" edge="1" parent="1" source="SqbSYqdVDFxBcxVoTpP4-14" target="SqbSYqdVDFxBcxVoTpP4-15">
          <mxGeometry relative="1" as="geometry" />
        </mxCell>
        <mxCell id="SqbSYqdVDFxBcxVoTpP4-60" value="Yes" style="edgeStyle=orthogonalEdgeStyle;rounded=0;orthogonalLoop=1;jettySize=auto;html=1;" edge="1" parent="1" source="SqbSYqdVDFxBcxVoTpP4-14" target="SqbSYqdVDFxBcxVoTpP4-19">
          <mxGeometry relative="1" as="geometry" />
        </mxCell>
        <mxCell id="SqbSYqdVDFxBcxVoTpP4-14" value="Switch 1" style="strokeWidth=2;html=1;shape=mxgraph.flowchart.decision;whiteSpace=wrap;" vertex="1" parent="1">
          <mxGeometry x="640" y="979.5" width="100" height="100" as="geometry" />
        </mxCell>
        <mxCell id="SqbSYqdVDFxBcxVoTpP4-58" value="No" style="edgeStyle=orthogonalEdgeStyle;rounded=0;orthogonalLoop=1;jettySize=auto;html=1;exitX=0.5;exitY=1;exitDx=0;exitDy=0;exitPerimeter=0;entryX=0.5;entryY=0;entryDx=0;entryDy=0;entryPerimeter=0;" edge="1" parent="1" source="SqbSYqdVDFxBcxVoTpP4-15" target="SqbSYqdVDFxBcxVoTpP4-16">
          <mxGeometry relative="1" as="geometry">
            <mxPoint x="690" y="1232" as="targetPoint" />
          </mxGeometry>
        </mxCell>
        <mxCell id="SqbSYqdVDFxBcxVoTpP4-61" value="Yes" style="edgeStyle=orthogonalEdgeStyle;rounded=0;orthogonalLoop=1;jettySize=auto;html=1;" edge="1" parent="1" source="SqbSYqdVDFxBcxVoTpP4-15" target="SqbSYqdVDFxBcxVoTpP4-20">
          <mxGeometry relative="1" as="geometry" />
        </mxCell>
        <mxCell id="SqbSYqdVDFxBcxVoTpP4-15" value="Switch 2" style="strokeWidth=2;html=1;shape=mxgraph.flowchart.decision;whiteSpace=wrap;" vertex="1" parent="1">
          <mxGeometry x="640" y="1102" width="100" height="100" as="geometry" />
        </mxCell>
        <mxCell id="SqbSYqdVDFxBcxVoTpP4-59" value="No" style="edgeStyle=orthogonalEdgeStyle;rounded=0;orthogonalLoop=1;jettySize=auto;html=1;exitX=0.5;exitY=1;exitDx=0;exitDy=0;exitPerimeter=0;entryX=0.5;entryY=0;entryDx=0;entryDy=0;entryPerimeter=0;" edge="1" parent="1" source="SqbSYqdVDFxBcxVoTpP4-16" target="SqbSYqdVDFxBcxVoTpP4-17">
          <mxGeometry relative="1" as="geometry" />
        </mxCell>
        <mxCell id="SqbSYqdVDFxBcxVoTpP4-63" value="Yes" style="edgeStyle=orthogonalEdgeStyle;rounded=0;orthogonalLoop=1;jettySize=auto;html=1;exitX=1;exitY=0.5;exitDx=0;exitDy=0;exitPerimeter=0;entryX=0.5;entryY=0;entryDx=0;entryDy=0;" edge="1" parent="1" source="SqbSYqdVDFxBcxVoTpP4-16" target="SqbSYqdVDFxBcxVoTpP4-26">
          <mxGeometry relative="1" as="geometry" />
        </mxCell>
        <mxCell id="SqbSYqdVDFxBcxVoTpP4-16" value="Switch 3" style="strokeWidth=2;html=1;shape=mxgraph.flowchart.decision;whiteSpace=wrap;" vertex="1" parent="1">
          <mxGeometry x="640" y="1242" width="100" height="100" as="geometry" />
        </mxCell>
        <mxCell id="SqbSYqdVDFxBcxVoTpP4-62" value="Yes" style="edgeStyle=orthogonalEdgeStyle;rounded=0;orthogonalLoop=1;jettySize=auto;html=1;" edge="1" parent="1" source="SqbSYqdVDFxBcxVoTpP4-17" target="SqbSYqdVDFxBcxVoTpP4-21">
          <mxGeometry relative="1" as="geometry" />
        </mxCell>
        <mxCell id="SqbSYqdVDFxBcxVoTpP4-92" value="No" style="edgeStyle=orthogonalEdgeStyle;rounded=0;orthogonalLoop=1;jettySize=auto;html=1;exitX=0.5;exitY=1;exitDx=0;exitDy=0;exitPerimeter=0;entryX=1;entryY=0.5;entryDx=0;entryDy=0;entryPerimeter=0;" edge="1" parent="1" source="SqbSYqdVDFxBcxVoTpP4-17" target="SqbSYqdVDFxBcxVoTpP4-86">
          <mxGeometry relative="1" as="geometry">
            <mxPoint x="805" y="1454.5" as="targetPoint" />
            <Array as="points">
              <mxPoint x="690" y="1477" />
            </Array>
          </mxGeometry>
        </mxCell>
        <mxCell id="SqbSYqdVDFxBcxVoTpP4-17" value="Switch 4" style="strokeWidth=2;html=1;shape=mxgraph.flowchart.decision;whiteSpace=wrap;" vertex="1" parent="1">
          <mxGeometry x="640" y="1369.5" width="100" height="100" as="geometry" />
        </mxCell>
        <mxCell id="SqbSYqdVDFxBcxVoTpP4-89" value="" style="edgeStyle=orthogonalEdgeStyle;rounded=0;orthogonalLoop=1;jettySize=auto;html=1;entryX=0.5;entryY=0.5;entryDx=0;entryDy=-15;entryPerimeter=0;" edge="1" parent="1" source="SqbSYqdVDFxBcxVoTpP4-19" target="SqbSYqdVDFxBcxVoTpP4-86">
          <mxGeometry relative="1" as="geometry">
            <mxPoint x="435" y="1029.5" as="targetPoint" />
          </mxGeometry>
        </mxCell>
        <mxCell id="SqbSYqdVDFxBcxVoTpP4-19" value="Display prime numbers" style="strokeWidth=2;html=1;shape=mxgraph.flowchart.display;whiteSpace=wrap;" vertex="1" parent="1">
          <mxGeometry x="475" y="999.5" width="100" height="60" as="geometry" />
        </mxCell>
        <mxCell id="SqbSYqdVDFxBcxVoTpP4-87" value="" style="edgeStyle=orthogonalEdgeStyle;rounded=0;orthogonalLoop=1;jettySize=auto;html=1;entryX=0.5;entryY=0.5;entryDx=0;entryDy=-15;entryPerimeter=0;" edge="1" parent="1" source="SqbSYqdVDFxBcxVoTpP4-20" target="SqbSYqdVDFxBcxVoTpP4-86">
          <mxGeometry relative="1" as="geometry">
            <mxPoint x="435" y="1152" as="targetPoint" />
          </mxGeometry>
        </mxCell>
        <mxCell id="SqbSYqdVDFxBcxVoTpP4-20" value="Display composite numbers" style="strokeWidth=2;html=1;shape=mxgraph.flowchart.display;whiteSpace=wrap;" vertex="1" parent="1">
          <mxGeometry x="465" y="1117" width="115" height="70" as="geometry" />
        </mxCell>
        <mxCell id="SqbSYqdVDFxBcxVoTpP4-94" style="edgeStyle=orthogonalEdgeStyle;rounded=0;orthogonalLoop=1;jettySize=auto;html=1;exitX=0;exitY=0.5;exitDx=0;exitDy=0;exitPerimeter=0;entryX=0.5;entryY=0.5;entryDx=0;entryDy=-15;entryPerimeter=0;" edge="1" parent="1" source="SqbSYqdVDFxBcxVoTpP4-21" target="SqbSYqdVDFxBcxVoTpP4-86">
          <mxGeometry relative="1" as="geometry" />
        </mxCell>
        <mxCell id="SqbSYqdVDFxBcxVoTpP4-21" value="Display Fibonacci series" style="strokeWidth=2;html=1;shape=mxgraph.flowchart.display;whiteSpace=wrap;" vertex="1" parent="1">
          <mxGeometry x="465" y="1384.5" width="120" height="70" as="geometry" />
        </mxCell>
        <mxCell id="SqbSYqdVDFxBcxVoTpP4-56" style="edgeStyle=orthogonalEdgeStyle;rounded=0;orthogonalLoop=1;jettySize=auto;html=1;exitX=0.5;exitY=1;exitDx=0;exitDy=0;entryX=0.5;entryY=0;entryDx=0;entryDy=0;entryPerimeter=0;" edge="1" parent="1" source="SqbSYqdVDFxBcxVoTpP4-22" target="SqbSYqdVDFxBcxVoTpP4-14">
          <mxGeometry relative="1" as="geometry" />
        </mxCell>
        <mxCell id="SqbSYqdVDFxBcxVoTpP4-22" value="Input switch" style="shape=parallelogram;html=1;strokeWidth=2;perimeter=parallelogramPerimeter;whiteSpace=wrap;rounded=1;arcSize=12;size=0.23;" vertex="1" parent="1">
          <mxGeometry x="645" y="899.5" width="100" height="60" as="geometry" />
        </mxCell>
        <mxCell id="SqbSYqdVDFxBcxVoTpP4-64" value="" style="edgeStyle=orthogonalEdgeStyle;rounded=0;orthogonalLoop=1;jettySize=auto;html=1;" edge="1" parent="1" source="SqbSYqdVDFxBcxVoTpP4-26" target="SqbSYqdVDFxBcxVoTpP4-27">
          <mxGeometry relative="1" as="geometry" />
        </mxCell>
        <mxCell id="SqbSYqdVDFxBcxVoTpP4-26" value="Input 2 operation&lt;br&gt;to Illustrates" style="shape=parallelogram;html=1;strokeWidth=2;perimeter=parallelogramPerimeter;whiteSpace=wrap;rounded=1;arcSize=12;size=0.23;" vertex="1" parent="1">
          <mxGeometry x="835" y="884.5" width="130" height="70" as="geometry" />
        </mxCell>
        <mxCell id="SqbSYqdVDFxBcxVoTpP4-65" value="No" style="edgeStyle=orthogonalEdgeStyle;rounded=0;orthogonalLoop=1;jettySize=auto;html=1;" edge="1" parent="1" source="SqbSYqdVDFxBcxVoTpP4-27" target="SqbSYqdVDFxBcxVoTpP4-28">
          <mxGeometry relative="1" as="geometry" />
        </mxCell>
        <mxCell id="SqbSYqdVDFxBcxVoTpP4-68" value="" style="edgeStyle=orthogonalEdgeStyle;rounded=0;orthogonalLoop=1;jettySize=auto;html=1;" edge="1" parent="1" source="SqbSYqdVDFxBcxVoTpP4-27" target="SqbSYqdVDFxBcxVoTpP4-30">
          <mxGeometry relative="1" as="geometry" />
        </mxCell>
        <mxCell id="SqbSYqdVDFxBcxVoTpP4-27" value="prime numbers&lt;br&gt;composite numbers" style="strokeWidth=2;html=1;shape=mxgraph.flowchart.decision;whiteSpace=wrap;" vertex="1" parent="1">
          <mxGeometry x="825" y="979.5" width="150" height="135" as="geometry" />
        </mxCell>
        <mxCell id="SqbSYqdVDFxBcxVoTpP4-66" value="No" style="edgeStyle=orthogonalEdgeStyle;rounded=0;orthogonalLoop=1;jettySize=auto;html=1;" edge="1" parent="1" source="SqbSYqdVDFxBcxVoTpP4-28" target="SqbSYqdVDFxBcxVoTpP4-29">
          <mxGeometry relative="1" as="geometry" />
        </mxCell>
        <mxCell id="SqbSYqdVDFxBcxVoTpP4-70" value="" style="edgeStyle=orthogonalEdgeStyle;rounded=0;orthogonalLoop=1;jettySize=auto;html=1;" edge="1" parent="1" source="SqbSYqdVDFxBcxVoTpP4-28" target="SqbSYqdVDFxBcxVoTpP4-32">
          <mxGeometry relative="1" as="geometry" />
        </mxCell>
        <mxCell id="SqbSYqdVDFxBcxVoTpP4-28" value="prime numbers&lt;br&gt;Fibonacci series" style="strokeWidth=2;html=1;shape=mxgraph.flowchart.decision;whiteSpace=wrap;" vertex="1" parent="1">
          <mxGeometry x="825" y="1142" width="150" height="135" as="geometry" />
        </mxCell>
        <mxCell id="SqbSYqdVDFxBcxVoTpP4-73" value="" style="edgeStyle=orthogonalEdgeStyle;rounded=0;orthogonalLoop=1;jettySize=auto;html=1;" edge="1" parent="1" source="SqbSYqdVDFxBcxVoTpP4-29" target="SqbSYqdVDFxBcxVoTpP4-34">
          <mxGeometry relative="1" as="geometry" />
        </mxCell>
        <mxCell id="SqbSYqdVDFxBcxVoTpP4-78" value="No" style="edgeStyle=orthogonalEdgeStyle;rounded=0;orthogonalLoop=1;jettySize=auto;html=1;exitX=0.5;exitY=1;exitDx=0;exitDy=0;exitPerimeter=0;entryX=0;entryY=0.5;entryDx=0;entryDy=0;entryPerimeter=0;" edge="1" parent="1" source="SqbSYqdVDFxBcxVoTpP4-29" target="SqbSYqdVDFxBcxVoTpP4-77">
          <mxGeometry relative="1" as="geometry" />
        </mxCell>
        <mxCell id="SqbSYqdVDFxBcxVoTpP4-29" value="composite numbers&lt;br&gt;Fibonacci series" style="strokeWidth=2;html=1;shape=mxgraph.flowchart.decision;whiteSpace=wrap;" vertex="1" parent="1">
          <mxGeometry x="825" y="1302" width="150" height="135" as="geometry" />
        </mxCell>
        <mxCell id="SqbSYqdVDFxBcxVoTpP4-69" value="" style="edgeStyle=orthogonalEdgeStyle;rounded=0;orthogonalLoop=1;jettySize=auto;html=1;" edge="1" parent="1" source="SqbSYqdVDFxBcxVoTpP4-30" target="SqbSYqdVDFxBcxVoTpP4-31">
          <mxGeometry relative="1" as="geometry" />
        </mxCell>
        <mxCell id="SqbSYqdVDFxBcxVoTpP4-30" value="Display prime numbers" style="strokeWidth=2;html=1;shape=mxgraph.flowchart.display;whiteSpace=wrap;" vertex="1" parent="1">
          <mxGeometry x="1015" y="1017" width="100" height="60" as="geometry" />
        </mxCell>
        <mxCell id="SqbSYqdVDFxBcxVoTpP4-81" style="edgeStyle=orthogonalEdgeStyle;rounded=0;orthogonalLoop=1;jettySize=auto;html=1;exitX=1;exitY=0.5;exitDx=0;exitDy=0;exitPerimeter=0;entryX=0.5;entryY=0.5;entryDx=0;entryDy=-15;entryPerimeter=0;" edge="1" parent="1" source="SqbSYqdVDFxBcxVoTpP4-31" target="SqbSYqdVDFxBcxVoTpP4-77">
          <mxGeometry relative="1" as="geometry">
            <mxPoint x="1355" y="1354.5" as="targetPoint" />
          </mxGeometry>
        </mxCell>
        <mxCell id="SqbSYqdVDFxBcxVoTpP4-31" value="Display composite numbers" style="strokeWidth=2;html=1;shape=mxgraph.flowchart.display;whiteSpace=wrap;" vertex="1" parent="1">
          <mxGeometry x="1145" y="1012" width="115" height="70" as="geometry" />
        </mxCell>
        <mxCell id="SqbSYqdVDFxBcxVoTpP4-72" value="" style="edgeStyle=orthogonalEdgeStyle;rounded=0;orthogonalLoop=1;jettySize=auto;html=1;" edge="1" parent="1" source="SqbSYqdVDFxBcxVoTpP4-32" target="SqbSYqdVDFxBcxVoTpP4-33">
          <mxGeometry relative="1" as="geometry" />
        </mxCell>
        <mxCell id="SqbSYqdVDFxBcxVoTpP4-32" value="Display prime numbers" style="strokeWidth=2;html=1;shape=mxgraph.flowchart.display;whiteSpace=wrap;" vertex="1" parent="1">
          <mxGeometry x="1015" y="1179.5" width="100" height="60" as="geometry" />
        </mxCell>
        <mxCell id="SqbSYqdVDFxBcxVoTpP4-80" style="edgeStyle=orthogonalEdgeStyle;rounded=0;orthogonalLoop=1;jettySize=auto;html=1;exitX=1;exitY=0.5;exitDx=0;exitDy=0;exitPerimeter=0;entryX=0.5;entryY=0.5;entryDx=0;entryDy=-15;entryPerimeter=0;" edge="1" parent="1" source="SqbSYqdVDFxBcxVoTpP4-33" target="SqbSYqdVDFxBcxVoTpP4-77">
          <mxGeometry relative="1" as="geometry">
            <mxPoint x="1355" y="1354.5" as="targetPoint" />
            <Array as="points">
              <mxPoint x="1355" y="1210" />
            </Array>
          </mxGeometry>
        </mxCell>
        <mxCell id="SqbSYqdVDFxBcxVoTpP4-33" value="Display Fibonacci series" style="strokeWidth=2;html=1;shape=mxgraph.flowchart.display;whiteSpace=wrap;" vertex="1" parent="1">
          <mxGeometry x="1155" y="1174.5" width="120" height="70" as="geometry" />
        </mxCell>
        <mxCell id="SqbSYqdVDFxBcxVoTpP4-74" value="" style="edgeStyle=orthogonalEdgeStyle;rounded=0;orthogonalLoop=1;jettySize=auto;html=1;" edge="1" parent="1" source="SqbSYqdVDFxBcxVoTpP4-34" target="SqbSYqdVDFxBcxVoTpP4-35">
          <mxGeometry relative="1" as="geometry" />
        </mxCell>
        <mxCell id="SqbSYqdVDFxBcxVoTpP4-34" value="Display composite numbers" style="strokeWidth=2;html=1;shape=mxgraph.flowchart.display;whiteSpace=wrap;" vertex="1" parent="1">
          <mxGeometry x="1015" y="1334.5" width="115" height="70" as="geometry" />
        </mxCell>
        <mxCell id="SqbSYqdVDFxBcxVoTpP4-95" style="edgeStyle=orthogonalEdgeStyle;rounded=0;orthogonalLoop=1;jettySize=auto;html=1;exitX=1;exitY=0.5;exitDx=0;exitDy=0;exitPerimeter=0;entryX=0.5;entryY=0.5;entryDx=0;entryDy=-15;entryPerimeter=0;" edge="1" parent="1" source="SqbSYqdVDFxBcxVoTpP4-35" target="SqbSYqdVDFxBcxVoTpP4-77">
          <mxGeometry relative="1" as="geometry" />
        </mxCell>
        <mxCell id="SqbSYqdVDFxBcxVoTpP4-35" value="Display Fibonacci series" style="strokeWidth=2;html=1;shape=mxgraph.flowchart.display;whiteSpace=wrap;" vertex="1" parent="1">
          <mxGeometry x="1165" y="1334.5" width="120" height="70" as="geometry" />
        </mxCell>
        <mxCell id="SqbSYqdVDFxBcxVoTpP4-53" value="" style="edgeStyle=orthogonalEdgeStyle;rounded=0;orthogonalLoop=1;jettySize=auto;html=1;" edge="1" parent="1" source="SqbSYqdVDFxBcxVoTpP4-36" target="SqbSYqdVDFxBcxVoTpP4-37">
          <mxGeometry relative="1" as="geometry" />
        </mxCell>
        <mxCell id="SqbSYqdVDFxBcxVoTpP4-36" value="Input 4 digit passcode" style="shape=parallelogram;html=1;strokeWidth=2;perimeter=parallelogramPerimeter;whiteSpace=wrap;rounded=1;arcSize=12;size=0.23;" vertex="1" parent="1">
          <mxGeometry x="815" y="642" width="100" height="60" as="geometry" />
        </mxCell>
        <mxCell id="SqbSYqdVDFxBcxVoTpP4-54" style="edgeStyle=orthogonalEdgeStyle;rounded=0;orthogonalLoop=1;jettySize=auto;html=1;exitX=0.5;exitY=0;exitDx=0;exitDy=0;entryX=1;entryY=0.5;entryDx=0;entryDy=0;entryPerimeter=0;" edge="1" parent="1" source="SqbSYqdVDFxBcxVoTpP4-37" target="SqbSYqdVDFxBcxVoTpP4-11">
          <mxGeometry relative="1" as="geometry" />
        </mxCell>
        <mxCell id="SqbSYqdVDFxBcxVoTpP4-37" value="Change password" style="rounded=1;whiteSpace=wrap;html=1;absoluteArcSize=1;arcSize=14;strokeWidth=2;" vertex="1" parent="1">
          <mxGeometry x="965" y="637" width="140" height="70" as="geometry" />
        </mxCell>
        <mxCell id="SqbSYqdVDFxBcxVoTpP4-45" value="End" style="html=1;dashed=0;whitespace=wrap;shape=mxgraph.dfd.start" vertex="1" parent="1">
          <mxGeometry x="1015" y="292" width="80" height="30" as="geometry" />
        </mxCell>
        <mxCell id="SqbSYqdVDFxBcxVoTpP4-77" value="End" style="html=1;dashed=0;whitespace=wrap;shape=mxgraph.dfd.start" vertex="1" parent="1">
          <mxGeometry x="1315" y="1452" width="80" height="30" as="geometry" />
        </mxCell>
        <mxCell id="SqbSYqdVDFxBcxVoTpP4-86" value="End" style="html=1;dashed=0;whitespace=wrap;shape=mxgraph.dfd.start" vertex="1" parent="1">
          <mxGeometry x="355" y="1462" width="80" height="30" as="geometry" />
        </mxCell>
      </root>
    </mxGraphModel>
  </diagram>
</mxfile>
